<?xml version="1.0" encoding="UTF-8"?>
<svg version="1.1" xmlns="http://www.w3.org/2000/svg" width="200" height="200">
<path d="M0 0 C66 0 132 0 200 0 C200 66 200 132 200 200 C134 200 68 200 0 200 C0 134 0 68 0 0 Z " fill="#0055D1" transform="translate(0,0)"/>
<path d="M0 0 C1.95792062 0.9824318 3.87244564 2.00398258 5.765625 3.10546875 C6.095625 2.11546875 6.425625 1.12546875 6.765625 0.10546875 C9.53096483 -1.27720116 11.51267936 -0.79923899 14.578125 -0.51953125 C16.13466797 -0.38417969 16.13466797 -0.38417969 17.72265625 -0.24609375 C20.765625 0.10546875 20.765625 0.10546875 23.36328125 0.6484375 C26.5183653 1.248673 29.4851084 1.0816 32.6796875 0.9453125 C34.765625 1.10546875 34.765625 1.10546875 37.765625 3.10546875 C37.765625 2.44546875 37.765625 1.78546875 37.765625 1.10546875 C39.415625 1.10546875 41.065625 1.10546875 42.765625 1.10546875 C42.765625 8.69546875 42.765625 16.28546875 42.765625 24.10546875 C25.82699321 25.75436211 25.82699321 25.75436211 20.765625 22.10546875 C18.53188496 17.73952232 18.26542975 12.9369147 17.765625 8.10546875 C15.57236463 11.39535931 15.44233615 12.8725527 15.203125 16.73046875 C14.86380172 22.00729203 14.86380172 22.00729203 13.765625 23.10546875 C10.92173637 23.2318638 8.40294902 23.27417217 5.640625 22.54296875 C3.78415945 21.95932545 3.78415945 21.95932545 2.015625 22.54296875 C-3.17480624 23.84057656 -6.92497597 23.7844164 -11.609375 21.35546875 C-15.29325462 18.19785765 -16.05622922 16.64939887 -16.609375 11.85546875 C-16.16187357 7.3804544 -14.89830003 3.75834254 -12.234375 0.10546875 C-7.98040114 -1.31252254 -4.25187791 -1.70223783 0 0 Z " fill="#1658B8" transform="translate(137.234375,87.89453125)"/>
<path d="M0 0 C0.680625 -0.00515625 1.36125 -0.0103125 2.0625 -0.015625 C4 0.25 4 0.25 7 2.25 C7 1.59 7 0.93 7 0.25 C8.65 0.25 10.3 0.25 12 0.25 C12 7.51 12 14.77 12 22.25 C10.35 22.25 8.7 22.25 7 22.25 C7 21.59 7 20.93 7 20.25 C6.01 20.91 5.02 21.57 4 22.25 C-2.90258449 22.91799205 -2.90258449 22.91799205 -6.875 20.5 C-9.79007536 17.41344962 -10.82513599 15.59062405 -11.375 11.375 C-10.89861498 7.40512486 -9.46959574 5.35463464 -7 2.25 C-4.00261059 0.25174039 -3.36652492 -0.02550398 0 0 Z " fill="#DBF1FC" transform="translate(168,88.75)"/>
<path d="M0 0 C3.07469523 1.70251719 5.40613254 3.81226508 7 7 C7.40710593 11.23390162 7.25575965 13.51588352 5.25 17.3125 C1.85324833 21.36973116 0.35053057 21.87137804 -4.9375 22.375 C-8.05283528 22.28797946 -9.06535728 21.96163812 -11.875 20.3125 C-14.90994417 17.00976664 -15.78309118 14.4563878 -16.4375 10.0625 C-15.81731894 5.72123258 -14.04686605 4.11941048 -11 1 C-7.51556578 -0.74221711 -3.80112955 -0.58675154 0 0 Z " fill="#EAF7FE" transform="translate(58,89)"/>
<path d="M0 0 C3.52321907 0.86318867 5.20098615 2.74024075 7.34375 5.57421875 C7.67375 5.90421875 8.00375 6.23421875 8.34375 6.57421875 C8.34375 8.88421875 8.34375 11.19421875 8.34375 13.57421875 C3.39375 13.90421875 -1.55625 14.23421875 -6.65625 14.57421875 C-6.65625 15.23421875 -6.65625 15.89421875 -6.65625 16.57421875 C-1.07794984 16.69890974 -1.07794984 16.69890974 4.34375 15.57421875 C5.00375 16.89421875 5.66375 18.21421875 6.34375 19.57421875 C3.70800127 22.20996748 2.24932548 22.58487958 -1.53125 23.01171875 C-5.8222038 22.84360302 -8.37643157 21.38549169 -11.65625 18.57421875 C-14.25552406 15.14790294 -14.22266131 11.75150216 -13.65625 7.57421875 C-10.60784762 1.40540448 -6.76449139 -0.45843692 0 0 Z " fill="#C9E1F7" transform="translate(134.65625,88.42578125)"/>
<path d="M0 0 C1.98 0 3.96 0 6 0 C6 5.28 6 10.56 6 16 C7.98 16 9.96 16 12 16 C13.99616554 14.00383446 13.40983427 10.18298037 13.5625 7.4375 C13.60568359 6.72658203 13.64886719 6.01566406 13.69335938 5.28320312 C13.79971777 3.52238088 13.90038846 1.7612168 14 0 C15.98 0 17.96 0 20 0 C20 7.26 20 14.52 20 22 C17.33333333 22 14.66666667 22 12 22 C10.906875 22.103125 9.81375 22.20625 8.6875 22.3125 C5 22 5 22 2.2890625 20.03125 C-0.7905243 15.95316236 -0.58226217 13.13867339 -0.3125 8.1875 C-0.28994141 7.39923828 -0.26738281 6.61097656 -0.24414062 5.79882812 C-0.18554161 3.86506071 -0.09586827 1.93227833 0 0 Z " fill="#C3E1FA" transform="translate(67,89)"/>
<path d="M0 0 C2.5625 1.375 2.5625 1.375 4 3 C4 3.66 4 4.32 4 5 C0.67438135 6.76062164 -0.59173995 7.10784228 -4.3125 6.125 C-5.199375 5.75375 -6.08625 5.3825 -7 5 C-6.20132321 7.13581094 -6.20132321 7.13581094 -4.2578125 7.74609375 C-2.84141422 8.20525583 -1.42474915 8.66359575 -0.0078125 9.12109375 C2.23653171 10.10354014 3.45309342 11.11144534 5 13 C5.5 15.4375 5.5 15.4375 5 18 C2.83613788 20.58267414 1.16725646 21.81307281 -2.1953125 22.3515625 C-5.81144433 22.48284121 -8.31298375 22.35188637 -11.5625 20.6875 C-13 19 -13 19 -13 16 C-8.48281619 14.63115642 -5.41225737 15.52924754 -1 17 C-1 16.01 -1 15.02 -1 14 C-1.61488281 13.90203125 -2.22976562 13.8040625 -2.86328125 13.703125 C-9.40052895 12.49368205 -9.40052895 12.49368205 -12.125 10.25 C-13.34340835 7.11694996 -12.96906939 5.18408512 -12 2 C-7.9772 -0.68186667 -4.72471177 -0.57140016 0 0 Z " fill="#E4F3FD" transform="translate(115,89)"/>
<path d="M0 0 C6.6 0 13.2 0 20 0 C20 0.99 20 1.98 20 3 C20.66 3.33 21.32 3.66 22 4 C21.7525 4.9075 21.505 5.815 21.25 6.75 C20.66408312 9.99734103 20.66408312 9.99734103 22.5 12.25 C25.54523559 14.38166491 28.39821014 15.16881773 32 16 C32 16.99 32 17.98 32 19 C28.4588979 19.08047959 25.40590348 18.97311528 22 18 C21.34 18 20.68 18 20 18 C21.15173355 20.46800047 22.04783565 22.04783565 24 24 C22.68 24 21.36 24 20 24 C20 23.34 20 22.68 20 22 C18.02 22.33 16.04 22.66 14 23 C14 23.66 14 24.32 14 25 C12.02 25 10.04 25 8 25 C8 24.67 8 24.34 8 24 C9.65 24 11.3 24 13 24 C12.91298828 22.42798828 12.91298828 22.42798828 12.82421875 20.82421875 C12.77731869 19.445357 12.73181878 18.06644713 12.6875 16.6875 C12.6246582 15.65206055 12.6246582 15.65206055 12.56054688 14.59570312 C12.51171875 12.57421875 12.51171875 12.57421875 13 9 C15.46875 7.15625 15.46875 7.15625 18 6 C18.87822312 3.91466367 18.87822312 3.91466367 19 2 C17.02 2.66 15.04 3.32 13 4 C13 3.34 13 2.68 13 2 C11.02 2 9.04 2 7 2 C7.00523682 2.6612085 7.01047363 3.32241699 7.01586914 4.00366211 C7.03657656 6.98159851 7.04964012 9.95951982 7.0625 12.9375 C7.07087891 13.97841797 7.07925781 15.01933594 7.08789062 16.09179688 C7.09111328 17.08115234 7.09433594 18.07050781 7.09765625 19.08984375 C7.10289307 20.00628662 7.10812988 20.92272949 7.11352539 21.86694336 C7 24 7 24 6 25 C4.00041636 25.04080783 1.99954746 25.04254356 0 25 C0 24.67 0 24.34 0 24 C1.65 24 3.3 24 5 24 C5 16.74 5 9.48 5 2 C3.35 2 1.7 2 0 2 C0 1.34 0 0.68 0 0 Z " fill="#0B56C5" transform="translate(82,87)"/>
<path d="M0 0 C3.0625 2.5 3.0625 2.5 5 5 C1.62343101 7.251046 1.20287392 7.1451382 -2.5625 6.5 C-4.87815196 6.05423328 -4.87815196 6.05423328 -7 6 C-9.33278733 7.89107141 -9.33278733 7.89107141 -9.1875 11.0625 C-9.33187793 13.88833136 -9.33187793 13.88833136 -8 15 C-5.66708189 15.04401732 -3.33299825 15.03954234 -1 15 C3 15 3 15 5 16 C4.06896676 18.32758311 3.34617872 19.74357132 1.3125 21.25 C-1.99794246 22.32365701 -4.53448741 22.3585013 -8 22 C-11.08193978 20.3718054 -13.26420667 18.96990938 -15.375 16.1875 C-16.31707395 12.89024117 -16.41260656 10.4187401 -16 7 C-12.04900179 0.41989889 -7.36958058 -1.1943803 0 0 Z " fill="#E5F5FC" transform="translate(36,89)"/>
<path d="M0 0 C1.65 0 3.3 0 5 0 C5.12375 0.639375 5.2475 1.27875 5.375 1.9375 C5.58125 2.618125 5.7875 3.29875 6 4 C6.66 4.33 7.32 4.66 8 5 C7.67 5.66 7.34 6.32 7 7 C7.08744368 8.87862875 7.24175542 10.75455181 7.4375 12.625 C7.53933594 13.62789062 7.64117187 14.63078125 7.74609375 15.6640625 C7.87177734 16.82035156 7.87177734 16.82035156 8 18 C7.071875 17.484375 6.14375 16.96875 5.1875 16.4375 C2.07242053 14.59903754 2.07242053 14.59903754 -1 16 C-4.5625 16.1875 -4.5625 16.1875 -8 16 C-10 14 -10 14 -10.3125 11.0625 C-10 8 -10 8 -8.8125 6.125 C-6.37666913 4.61310498 -4.82896232 4.72400368 -2 5 C-1.278125 5.20625 -0.55625 5.4125 0.1875 5.625 C0.785625 5.74875 1.38375 5.8725 2 6 C2.66 5.34 3.32 4.68 4 4 C2.68 2.68 1.36 1.36 0 0 Z " fill="#0256D0" transform="translate(36,89)"/>
<path d="M0 0 C2.5625 2 2.5625 2 4 4 C3.360625 4.12375 2.72125 4.2475 2.0625 4.375 C1.381875 4.58125 0.70125 4.7875 0 5 C-0.33 5.66 -0.66 6.32 -1 7 C-1.33 6.67 -1.66 6.34 -2 6 C-4.45809998 5.7499227 -4.45809998 5.7499227 -7 6 C-9.29926298 7.87046826 -9.29926298 7.87046826 -9.25 10.875 C-9.01152253 13.85596832 -8.54507335 15.4892558 -7 18 C-5.35 18 -3.7 18 -2 18 C-5.39313374 20.0880823 -8.04599009 20.50476722 -12 20 C-14.83626799 17.75054608 -15.3683403 15.06146055 -16 11.625 C-16.31124344 8.06625421 -15.95988864 6.27512948 -13.6875 3.5 C-9.39050397 -0.49720561 -5.72611893 -0.78314593 0 0 Z " fill="#E3F4FD" transform="translate(58,89)"/>
<path d="M0 0 C4 0 8 0 12 0 C11.75 2.375 11.75 2.375 11 5 C10.34 5.226875 9.68 5.45375 9 5.6875 C8.34 6.120625 7.68 6.55375 7 7 C6.53290648 9.66482841 6.30427527 11.95070966 6.25 14.625 C6.22035156 15.33140625 6.19070312 16.0378125 6.16015625 16.765625 C6.08944643 18.50980047 6.04245965 20.25490827 6 22 C4.02 22 2.04 22 0 22 C0 14.74 0 7.48 0 0 Z " fill="#F3FCFD" transform="translate(145,89)"/>
<path d="M0 0 C4 0 8 0 12 0 C11.75 2.375 11.75 2.375 11 5 C10.34 5.226875 9.68 5.45375 9 5.6875 C8.34 6.120625 7.68 6.55375 7 7 C6.53290648 9.66482841 6.30427527 11.95070966 6.25 14.625 C6.22035156 15.33140625 6.19070312 16.0378125 6.16015625 16.765625 C6.08944643 18.50980047 6.04245965 20.25490827 6 22 C4.02 22 2.04 22 0 22 C0 14.74 0 7.48 0 0 Z " fill="#FAFDFC" transform="translate(89,89)"/>
<path d="M0 0 C1.23556641 0.01740234 1.23556641 0.01740234 2.49609375 0.03515625 C3.32238281 0.04417969 4.14867187 0.05320312 5 0.0625 C5.63808594 0.07410156 6.27617187 0.08570312 6.93359375 0.09765625 C6.93359375 1.08765625 6.93359375 2.07765625 6.93359375 3.09765625 C6.14984375 3.38640625 5.36609375 3.67515625 4.55859375 3.97265625 C1.83687743 4.94677879 1.83687743 4.94677879 -0.06640625 7.09765625 C-0.56651149 10.05534802 -0.56651149 10.05534802 -0.06640625 13.09765625 C1.81437248 15.01022337 1.81437248 15.01022337 3.93359375 16.09765625 C3.60359375 17.08765625 3.27359375 18.07765625 2.93359375 19.09765625 C0.18359375 19.47265625 0.18359375 19.47265625 -3.06640625 19.09765625 C-5.73594388 16.14711466 -6.91181685 14.02519267 -7.56640625 10.09765625 C-6.88787064 6.0264426 -4.64955444 0.2197332 0 0 Z " fill="#E2F4FE" transform="translate(164.06640625,89.90234375)"/>
<path d="M0 0 C1.65 0 3.3 0 5 0 C5 5.61 5 11.22 5 17 C7.64 17.33 10.28 17.66 13 18 C12.67 19.32 12.34 20.64 12 22 C7.8479671 22.40706205 5.71955709 22.52105859 2.28125 20.03125 C-0.7881222 15.95276913 -0.58200078 13.13387584 -0.3125 8.1875 C-0.28994141 7.39923828 -0.26738281 6.61097656 -0.24414062 5.79882812 C-0.18554161 3.86506071 -0.09586827 1.93227833 0 0 Z " fill="#F8FDFC" transform="translate(67,89)"/>
<path d="M0 0 C9.01076716 -0.78734859 9.01076716 -0.78734859 13.0625 2.4375 C14.0215625 3.7059375 14.0215625 3.7059375 15 5 C15.33 5.33 15.66 5.66 16 6 C16.04080783 7.99958364 16.04254356 10.00045254 16 12 C15.01 12 14.02 12 13 12 C13 11.34 13 10.68 13 10 C8.05 9.67 3.1 9.34 -2 9 C-1.67 7.68 -1.34 6.36 -1 5 C3.95 4.01 3.95 4.01 9 3 C7.50256881 1.50256881 6.01175761 1.66797307 3.9375 1.4375 C2.638125 1.293125 1.33875 1.14875 0 1 C0 0.67 0 0.34 0 0 Z " fill="#E1F2FC" transform="translate(127,89)"/>
<path d="M0 0 C1.8125 1.125 1.8125 1.125 3 3 C3.4375 6 3.4375 6 3 9 C1.3125 10.9375 1.3125 10.9375 -1 12 C-4.37036311 11.75925978 -5.58798021 11.41201979 -8 9 C-8.333728 5.86295684 -8.52849028 3.83445834 -6.8125 1.125 C-4.34492892 -0.40659584 -2.85480169 -0.42822025 0 0 Z " fill="#0958CF" transform="translate(171,94)"/>
<path d="M0 0 C0.66 0.66 1.32 1.32 2 2 C0.33657163 3.66342837 -1.7825709 3.36048097 -4.0625 3.5625 C-4.98160156 3.64628906 -5.90070313 3.73007813 -6.84765625 3.81640625 C-7.91306641 3.90728516 -7.91306641 3.90728516 -9 4 C-9 4.99 -9 5.98 -9 7 C-4.38 7.66 0.24 8.32 5 9 C5 9.66 5 10.32 5 11 C0.05 11 -4.9 11 -10 11 C-10.33 11.99 -10.66 12.98 -11 14 C-13.48038907 10.2794164 -13.46337203 8.40203429 -13 4 C-10.06087071 -0.98374098 -5.27038738 -0.8750064 0 0 Z " fill="#F5FCFD" transform="translate(135,90)"/>
<path d="M0 0 C6.6 0 13.2 0 20 0 C20 0.99 20 1.98 20 3 C20.66 3.33 21.32 3.66 22 4 C21.814375 4.928125 21.62875 5.85625 21.4375 6.8125 C20.75876119 10.01343771 20.75876119 10.01343771 22 13 C21.34 13 20.68 13 20 13 C19.67 11.35 19.34 9.7 19 8 C17.68 7.67 16.36 7.34 15 7 C15.99 6.67 16.98 6.34 18 6 C18.73323796 3.98491642 18.73323796 3.98491642 19 2 C17.02 2.66 15.04 3.32 13 4 C13 3.34 13 2.68 13 2 C11.02 2 9.04 2 7 2 C7.00523682 2.6612085 7.01047363 3.32241699 7.01586914 4.00366211 C7.03657656 6.98159851 7.04964012 9.95951982 7.0625 12.9375 C7.07087891 13.97841797 7.07925781 15.01933594 7.08789062 16.09179688 C7.09111328 17.08115234 7.09433594 18.07050781 7.09765625 19.08984375 C7.10289307 20.00628662 7.10812988 20.92272949 7.11352539 21.86694336 C7 24 7 24 6 25 C4.00041636 25.04080783 1.99954746 25.04254356 0 25 C0 24.67 0 24.34 0 24 C1.65 24 3.3 24 5 24 C5 16.74 5 9.48 5 2 C3.35 2 1.7 2 0 2 C0 1.34 0 0.68 0 0 Z " fill="#1E56AB" transform="translate(82,87)"/>
<path d="M0 0 C1.8125 1.125 1.8125 1.125 3 3 C3.3125 6.0625 3.3125 6.0625 3 9 C1 11 1 11 -2.5 11.25 C-6 11 -6 11 -8 9 C-8.333728 5.86295684 -8.52849028 3.83445834 -6.8125 1.125 C-4.34492892 -0.40659584 -2.85480169 -0.42822025 0 0 Z " fill="#0756CB" transform="translate(56,94)"/>
<path d="M0 0 C4.75 -0.125 4.75 -0.125 7 1 C7.99 0.67 8.98 0.34 10 0 C10 0.66 10 1.32 10 2 C10.99 2 11.98 2 13 2 C13.14695312 2.90492187 13.14695312 2.90492187 13.296875 3.828125 C14.20946904 8.70578282 14.87595723 11.83823388 19 15 C18.67 15.66 18.34 16.32 18 17 C17.236875 16.79375 16.47375 16.5875 15.6875 16.375 C12.78114056 15.66608797 12.78114056 15.66608797 10 18 C9.34 17.34 8.68 16.68 8 16 C8.495 15.649375 8.99 15.29875 9.5 14.9375 C11.73063966 12.05625711 11.19980621 9.52990974 11 6 C10.28972656 5.81824219 9.57945313 5.63648437 8.84765625 5.44921875 C7.92855469 5.19785156 7.00945312 4.94648437 6.0625 4.6875 C5.14597656 4.44386719 4.22945313 4.20023437 3.28515625 3.94921875 C2.53105469 3.63597656 1.77695313 3.32273437 1 3 C0.67 2.01 0.34 1.02 0 0 Z " fill="#1859B8" transform="translate(108,94)"/>
<path d="M0 0 C0.33 0 0.66 0 1 0 C1.06058594 1.19238281 1.12117188 2.38476562 1.18359375 3.61328125 C1.26801149 5.17969925 1.35265887 6.74610488 1.4375 8.3125 C1.47681641 9.09818359 1.51613281 9.88386719 1.55664062 10.69335938 C1.59853516 11.45068359 1.64042969 12.20800781 1.68359375 12.98828125 C1.72025146 13.68477783 1.75690918 14.38127441 1.79467773 15.09887695 C1.95581153 17.2216572 1.95581153 17.2216572 3 20 C2.01 19.67 1.02 19.34 0 19 C-0.33 18.34 -0.66 17.68 -1 17 C-1.78375 17.969375 -2.5675 18.93875 -3.375 19.9375 C-4.91288705 21.83962346 -5.79259913 22.89629957 -8 24 C-15.46666667 24.35555556 -15.46666667 24.35555556 -19 22 C-18.67 21.34 -18.34 20.68 -18 20 C-17.67 20.33 -17.34 20.66 -17 21 C-11.71809665 21.35212689 -8.25769505 21.5063371 -4 18 C-1.43553855 14.58071806 -1.70358516 11.1498078 -2 7 C-2.88064927 4.64630193 -2.88064927 4.64630193 -4 3 C-3.01 3 -2.02 3 -1 3 C-0.67 2.01 -0.34 1.02 0 0 Z " fill="#195ABD" transform="translate(66,89)"/>
<path d="M0 0 C1.98 0 3.96 0 6 0 C6.33 0.99 6.66 1.98 7 3 C5.68 3 4.36 3 3 3 C2.67 8.61 2.34 14.22 2 20 C2.66 20 3.32 20 4 20 C4.33 15.71 4.66 11.42 5 7 C5.33 7 5.66 7 6 7 C6 11.95 6 16.9 6 22 C4.02 22 2.04 22 0 22 C0 14.74 0 7.48 0 0 Z " fill="#C5E4FD" transform="translate(89,89)"/>
<path d="M0 0 C0.99 0.33 1.98 0.66 3 1 C3.09688221 6.44693314 3.12862175 11.63904667 2 17 C0.35 16.67 -1.3 16.34 -3 16 C-2.91621094 15.32453125 -2.83242187 14.6490625 -2.74609375 13.953125 C-2.64425781 13.06109375 -2.54242188 12.1690625 -2.4375 11.25 C-2.33308594 10.36828125 -2.22867188 9.4865625 -2.12109375 8.578125 C-2.00543324 6.11567549 -2.26361305 4.33461936 -3 2 C-2.01 1.34 -1.02 0.68 0 0 Z " fill="#FAFDFC" transform="translate(177,91)"/>
<path d="M0 0 C0.33 0 0.66 0 1 0 C1.33 3.63 1.66 7.26 2 11 C5.11223313 6.85035583 5.52003578 4.99162787 6 0 C6.66 0 7.32 0 8 0 C8.05384521 2.29141286 8.09272087 4.58318188 8.125 6.875 C8.14820312 8.15117188 8.17140625 9.42734375 8.1953125 10.7421875 C8 14 8 14 6 16 C3.03 15.505 3.03 15.505 0 15 C0 10.05 0 5.1 0 0 Z " fill="#0E56BE" transform="translate(73,90)"/>
<path d="M0 0 C-0.93103324 2.32758311 -1.65382128 3.74357132 -3.6875 5.25 C-6.9499217 6.30808271 -9.58892927 6.29921673 -13 6 C-15.9375 4.5 -15.9375 4.5 -18 3 C-17.34 2.67 -16.68 2.34 -16 2 C-13.375 2.9375 -13.375 2.9375 -11 4 C-11.33 2.68 -11.66 1.36 -12 0 C-7.224647 -1.68541871 -4.55270882 -2.48329572 0 0 Z " fill="#DAEEFC" transform="translate(41,105)"/>
<path d="M0 0 C4 0 8 0 12 0 C11.67 1.65 11.34 3.3 11 5 C9.68 5.33 8.36 5.66 7 6 C7 5.01 7 4.02 7 3 C5.35 3 3.7 3 2 3 C1.67 8.94 1.34 14.88 1 21 C2.65 21 4.3 21 6 21 C6 21.33 6 21.66 6 22 C4.02 22 2.04 22 0 22 C0 14.74 0 7.48 0 0 Z " fill="#BDDFFD" transform="translate(145,89)"/>
<path d="M0 0 C1.98 0.495 1.98 0.495 4 1 C3.67 6.94 3.34 12.88 3 19 C2.01 19 1.02 19 0 19 C-0.9154645 14.53795824 -0.97847873 10.65454615 -0.5625 6.125 C-0.46066406 4.97257812 -0.35882813 3.82015625 -0.25390625 2.6328125 C-0.17011719 1.76398438 -0.08632812 0.89515625 0 0 Z " fill="#F8FDFD" transform="translate(82,90)"/>
<path d="M0 0 C0.33 0 0.66 0 1 0 C1.28875 1.0725 1.5775 2.145 1.875 3.25 C2.72820109 6.09400364 3.5636503 8.43508983 5 11 C6.65 11 8.3 11 10 11 C6.5980513 13.09350689 3.94727588 13.17942163 0 13 C-1.40692958 9.21887676 -2.45030866 6.05277796 -2 2 C-1.34 1.34 -0.68 0.68 0 0 Z " fill="#F5FBFC" transform="translate(46,96)"/>
<path d="M0 0 C2.125 0.9375 2.125 0.9375 4 2 C2.25 5.875 2.25 5.875 0 7 C-2.6723621 7.13415472 -5.32250488 7.04318541 -8 7 C-8.33 6.01 -8.66 5.02 -9 4 C-5.535 3.505 -5.535 3.505 -2 3 C-2 2.34 -2 1.68 -2 1 C-1.34 0.67 -0.68 0.34 0 0 Z " fill="#DAEFFD" transform="translate(137,104)"/>
<path d="M0 0 C8.12628256 -0.46882399 8.12628256 -0.46882399 11.5625 1.375 C13 3 13 3 13 5 C9.67438135 6.76062164 8.40826005 7.10784228 4.6875 6.125 C3.800625 5.75375 2.91375 5.3825 2 5 C2 4.01 2 3.02 2 2 C1.34 1.34 0.68 0.68 0 0 Z " fill="#DCF0FC" transform="translate(106,89)"/>
<path d="M0 0 C1.65 0 3.3 0 5 0 C3.68 0.33 2.36 0.66 1 1 C1.41904735 6.06165083 2.03574819 10.28579566 4 15 C4.125 17.8125 4.125 17.8125 4 20 C6.64 20.33 9.28 20.66 12 21 C12 21.33 12 21.66 12 22 C7.8479671 22.40706205 5.71955709 22.52105859 2.28125 20.03125 C-0.7881222 15.95276913 -0.58200078 13.13387584 -0.3125 8.1875 C-0.28994141 7.39923828 -0.26738281 6.61097656 -0.24414062 5.79882812 C-0.18554161 3.86506071 -0.09586827 1.93227833 0 0 Z " fill="#DFF7FE" transform="translate(67,89)"/>
<path d="M0 0 C0.99 0.66 1.98 1.32 3 2 C3.4375 4.9375 3.4375 4.9375 3 8 C1.3125 9.9375 1.3125 9.9375 -1 11 C-4.37036311 10.75925978 -5.58798021 10.41201979 -8 8 C-8.125 4.875 -8.125 4.875 -8 2 C-7.34 1.67 -6.68 1.34 -6 1 C-6 3.31 -6 5.62 -6 8 C-4.35 8 -2.7 8 -1 8 C-0.67 5.36 -0.34 2.72 0 0 Z " fill="#185ABC" transform="translate(171,95)"/>
<path d="M0 0 C0.66 0.33 1.32 0.66 2 1 C2 4.3 2 7.6 2 11 C3.65 11.33 5.3 11.66 7 12 C6.67 12.99 6.34 13.98 6 15 C4.02 15 2.04 15 0 15 C-2.25491788 10.49016424 -2.32431261 6.94576735 -2 2 C-1.34 1.34 -0.68 0.68 0 0 Z " fill="#F9FCFD" transform="translate(161,94)"/>
<path d="M0 0 C1.8125 1.125 1.8125 1.125 3 3 C3.1875 6.1875 3.1875 6.1875 3 9 C2.01 9.495 2.01 9.495 1 10 C0.67 8.35 0.34 6.7 0 5 C-0.99 5.33 -1.98 5.66 -3 6 C-3.99 5.34 -4.98 4.68 -6 4 C-6.33 5.65 -6.66 7.3 -7 9 C-7.33 9 -7.66 9 -8 9 C-8.36190476 3.57142857 -8.36190476 3.57142857 -6.8125 1.125 C-4.34492892 -0.40659584 -2.85480169 -0.42822025 0 0 Z " fill="#1559C0" transform="translate(56,94)"/>
<path d="M0 0 C1.65 0 3.3 0 5 0 C5.12375 0.639375 5.2475 1.27875 5.375 1.9375 C5.684375 2.9584375 5.684375 2.9584375 6 4 C6.66 4.33 7.32 4.66 8 5 C7.67 5.66 7.34 6.32 7 7 C7.08744368 8.87862875 7.24175542 10.75455181 7.4375 12.625 C7.59025391 14.12933594 7.59025391 14.12933594 7.74609375 15.6640625 C7.82988281 16.43492188 7.91367187 17.20578125 8 18 C6.02 17.01 4.04 16.02 2 15 C2.66 14.67 3.32 14.34 4 14 C4 12.68 4 11.36 4 10 C3.34 9.67 2.68 9.34 2 9 C2 6 2 6 4 4 C2.68 2.68 1.36 1.36 0 0 Z " fill="#1A5ABE" transform="translate(36,89)"/>
<path d="M0 0 C0.33 0 0.66 0 1 0 C1 2.64 1 5.28 1 8 C0.34 8 -0.32 8 -1 8 C-1 8.66 -1 9.32 -1 10 C-3.31 9.67 -5.62 9.34 -8 9 C-8 8.34 -8 7.68 -8 7 C-5.69 6.34 -3.38 5.68 -1 5 C-0.67 3.35 -0.34 1.7 0 0 Z M-1 11 C-1.33 11.66 -1.66 12.32 -2 13 C-4.64 13 -7.28 13 -10 13 C-10.33 12.34 -10.66 11.68 -11 11 C-7.42355152 9.7619986 -4.66305234 10.25073929 -1 11 Z " fill="#E2F3FD" transform="translate(59,98)"/>
<path d="M0 0 C0.66 0.99 1.32 1.98 2 3 C0.35 2.67 -1.3 2.34 -3 2 C-3 2.66 -3 3.32 -3 4 C-3.99 4.495 -3.99 4.495 -5 5 C-5.65213292 7.02463255 -5.65213292 7.02463255 -6 9 C-4.35 9.33 -2.7 9.66 -1 10 C-0.67 9.01 -0.34 8.02 0 7 C1.32 7.66 2.64 8.32 4 9 C0.32653229 11.44897847 -1.66356399 11.31537716 -6 11 C-8 9 -8 9 -8.3125 6.0625 C-8 3 -8 3 -6.8125 1.125 C-4.36063578 -0.39684676 -2.83181098 -0.43566323 0 0 Z " fill="#1459BE" transform="translate(34,94)"/>
<path d="M0 0 C1.98 0 3.96 0 6 0 C6.66 1.32 7.32 2.64 8 4 C4.7 4 1.4 4 -2 4 C-1.34 2.68 -0.68 1.36 0 0 Z " fill="#346EC1" transform="translate(129,94)"/>
<path d="M0 0 C0.33 0 0.66 0 1 0 C1 4.95 1 9.9 1 15 C0.34 14.67 -0.32 14.34 -1 14 C-1.59765625 12.00390625 -1.59765625 12.00390625 -2.0625 9.5625 C-2.7144301 6.17525953 -2.7144301 6.17525953 -4 3 C-3.01 3 -2.02 3 -1 3 C-0.67 2.01 -0.34 1.02 0 0 Z " fill="#2358A8" transform="translate(66,89)"/>
<path d="M0 0 C2.375 0.6875 2.375 0.6875 5 2 C6.3125 4.625 6.3125 4.625 7 7 C2.25 6.125 2.25 6.125 0 5 C0 3.35 0 1.7 0 0 Z " fill="#F5FCFC" transform="translate(23,102)"/>
<path d="M0 0 C1.98 0 3.96 0 6 0 C6.33 0.99 6.66 1.98 7 3 C5.68 4.32 4.36 5.64 3 7 C2.01 6.67 1.02 6.34 0 6 C0.185625 5.38125 0.37125 4.7625 0.5625 4.125 C1.23686176 1.95839822 1.23686176 1.95839822 0 0 Z " fill="#0F58C7" transform="translate(117,90)"/>
<path d="M0 0 C0.7734375 0.495 0.7734375 0.495 1.5625 1 C1.2325 1.66 0.9025 2.32 0.5625 3 C0.2325 2.67 -0.0975 2.34 -0.4375 2 C-2.05889437 1.87505384 -3.68634122 1.82428376 -5.3125 1.8125 C-6.63894531 1.79123047 -6.63894531 1.79123047 -7.9921875 1.76953125 C-10.69516726 1.82931576 -10.69516726 1.82931576 -13.4375 4 C-13.125 2.0625 -13.125 2.0625 -12.4375 0 C-8.17949462 -1.41933513 -4.20838462 -1.72651677 0 0 Z " fill="#1F61BF" transform="translate(137.4375,88)"/>
<path d="M0 0 C1.65 0.99 3.3 1.98 5 3 C3.02 3.99 3.02 3.99 1 5 C1 5.66 1 6.32 1 7 C-1.475 6.01 -1.475 6.01 -4 5 C-2.68 3.35 -1.36 1.7 0 0 Z " fill="#0956C7" transform="translate(41,105)"/>
<path d="M0 0 C2.64 0.66 5.28 1.32 8 2 C8 2.99 8 3.98 8 5 C2.46153846 5.36923077 2.46153846 5.36923077 0.125 3.5 C-0.24625 3.005 -0.6175 2.51 -1 2 C-0.67 1.34 -0.34 0.68 0 0 Z " fill="#2464BC" transform="translate(106,101)"/>
<path d="M0 0 C4.16138263 -0.08159574 7.9472484 0.01751476 12 1 C10.35 2.65 8.7 4.3 7 6 C6.67 4.35 6.34 2.7 6 1 C4.02 1.66 2.04 2.32 0 3 C0 2.01 0 1.02 0 0 Z " fill="#205EBB" transform="translate(151,88)"/>
<path d="M0 0 C4.29 0.33 8.58 0.66 13 1 C13 1.33 13 1.66 13 2 C4.57142857 3.28571429 4.57142857 3.28571429 0 2 C0 1.34 0 0.68 0 0 Z " fill="#1053B5" transform="translate(82,87)"/>
<path d="M0 0 C0 0.99 0 1.98 0 3 C-1.98 3 -3.96 3 -6 3 C-6.33 2.34 -6.66 1.68 -7 1 C-4.53721199 -0.231394 -2.7204945 -0.07159196 0 0 Z " fill="#FAFDFD" transform="translate(135,107)"/>
<path d="M0 0 C0.33 0 0.66 0 1 0 C1 2.64 1 5.28 1 8 C-1.97 8 -4.94 8 -8 8 C-8 7.67 -8 7.34 -8 7 C-5.69 6.34 -3.38 5.68 -1 5 C-0.67 3.35 -0.34 1.7 0 0 Z " fill="#BCD9F9" transform="translate(59,98)"/>
<path d="M0 0 C-0.33 1.32 -0.66 2.64 -1 4 C-3.92879371 3.37240135 -6.36095629 2.41377341 -9 1 C-5.92677456 0.08941469 -3.19902639 -0.08886184 0 0 Z " fill="#1C60C4" transform="translate(121,96)"/>
<path d="M0 0 C1.32 0 2.64 0 4 0 C3.67 1.65 3.34 3.3 3 5 C1.68 5.33 0.36 5.66 -1 6 C-1 5.34 -1 4.68 -1 4 C-0.01 4 0.98 4 2 4 C2 3.34 2 2.68 2 2 C1.01 1.67 0.02 1.34 -1 1 C-0.67 0.67 -0.34 0.34 0 0 Z " fill="#CFE9FE" transform="translate(97,89)"/>
<path d="M0 0 C-0.33 0.99 -0.66 1.98 -1 3 C-5.455 2.01 -5.455 2.01 -10 1 C-10 0.67 -10 0.34 -10 0 C-6.33694766 -0.74926071 -3.57644848 -1.2380014 0 0 Z " fill="#2F67BE" transform="translate(176,88)"/>
<path d="M0 0 C0.66 0.33 1.32 0.66 2 1 C2 1.99 2 2.98 2 4 C-0.31 4 -2.62 4 -5 4 C-3.73293765 1.46587529 -2.59334288 1.02161992 0 0 Z " fill="#FDFBFC" transform="translate(115,105)"/>
</svg>
