<?xml version="1.0" encoding="UTF-8"?>
<svg version="1.1" xmlns="http://www.w3.org/2000/svg" width="200" height="200">
<path d="M0 0 C66 0 132 0 200 0 C200 66 200 132 200 200 C134 200 68 200 0 200 C0 134 0 68 0 0 Z " fill="#FA4E64" transform="translate(0,0)"/>
<path d="M0 0 C66 0 132 0 200 0 C200 66 200 132 200 200 C134 200 68 200 0 200 C0 134 0 68 0 0 Z M78 10 C76.98550781 10.23332031 75.97101563 10.46664063 74.92578125 10.70703125 C60.65675625 14.55071695 47.83181425 22.04291989 37 32 C36.39414062 32.51433594 35.78828125 33.02867188 35.1640625 33.55859375 C18.64964839 48.48359242 8.92046328 72.05751416 7.515625 93.953125 C6.55250363 120.77863482 15.98175698 144.74787553 33.86328125 164.79296875 C49.80927556 181.70600389 73.26223354 191.73704333 96.32739258 192.53857422 C122.75355811 192.76457686 146.06497378 183.60069992 165 165 C165.83402344 164.19046875 166.66804687 163.3809375 167.52734375 162.546875 C184.28429502 145.29935043 192.30760045 121.60654504 192.3828125 97.84423828 C191.91119557 72.01829861 180.18244264 49.59111129 162.1496582 31.65893555 C144.78092055 15.11692275 122.58963409 7.34362398 98.89306641 7.66357422 C91.80784846 7.86394662 84.92159242 8.39700738 78 10 Z " fill="#FEFCFD" transform="translate(0,0)"/>
<path d="M0 0 C0.96292969 0.51046875 1.92585937 1.0209375 2.91796875 1.546875 C16.6949669 9.4427026 27.42552192 22.23836929 35 36 C35.56074219 36.99902344 36.12148437 37.99804688 36.69921875 39.02734375 C48.02343879 61.1908676 48.76068941 85.67105429 41.25 109 C33.38644321 132.31703011 17.10000221 151.67261033 -4.83984375 162.9453125 C-27.00458532 173.52718912 -52.33053423 175.47176709 -75.68652344 167.83007812 C-87.05041899 163.75269897 -96.69559512 157.64388425 -106 150 C-106.98742187 149.22269531 -107.97484375 148.44539062 -108.9921875 147.64453125 C-112.27560053 144.89214977 -114.88694957 141.75678699 -117.5 138.375 C-117.97848389 137.7574585 -118.45696777 137.13991699 -118.94995117 136.50366211 C-134.10810259 116.55981055 -140.3277693 92.81042774 -138 68 C-134.32512628 43.95972704 -122.42898618 21.97751849 -103.2109375 6.796875 C-72.33425557 -15.72854557 -33.30319003 -18.7545146 0 0 Z M-97 17 C-108.55352248 30.95591461 -114.21091365 46.19927166 -114.3125 64.25 C-114.31805908 65.07749756 -114.32361816 65.90499512 -114.3293457 66.75756836 C-114.12452339 84.29350907 -106.24599259 102.12117873 -94.2890625 114.83984375 C-86.77748358 121.92841566 -78.69626311 127.42630953 -69 131 C-67.96617188 131.391875 -66.93234375 131.78375 -65.8671875 132.1875 C-50.292588 137.39107849 -35.0040082 136.21527783 -20 130 C-19.38253906 129.74831055 -18.76507813 129.49662109 -18.12890625 129.23730469 C-1.92461011 122.42841704 10.20021285 110.00665045 17.375 94 C18.2839403 91.6796774 19.16133851 89.34663937 20 87 C20.3403125 86.07058594 20.680625 85.14117187 21.03125 84.18359375 C26.43857442 66.58475547 23.55191624 46.92708525 15.32397461 30.81713867 C11.94937373 24.56194751 7.88833487 19.16742665 3 14 C2.33742188 13.28457031 1.67484375 12.56914063 0.9921875 11.83203125 C-11.0283407 0.01717748 -29.20594131 -6.31105835 -45.8125 -6.375 C-65.82246627 -6.00725168 -83.28858976 2.46790681 -97 17 Z " fill="#FC4C63" transform="translate(146,20)"/>
<path d="M0 0 C0.89976563 0.4021875 1.79953125 0.804375 2.7265625 1.21875 C14.81745751 7.21423513 23.37517041 17.02131536 27.875 29.75 C30.92406922 41.3985399 29.44256432 53.01336752 23.609375 63.5 C22.16333681 65.75277528 20.63054771 67.87782986 19 70 C18.54882812 70.62648438 18.09765625 71.25296875 17.6328125 71.8984375 C12.00184717 79.18369773 3.66590051 83.3294878 -5 86 C-6.2375 86.391875 -7.475 86.78375 -8.75 87.1875 C-21.04750696 89.95205583 -33.28339491 87.27017042 -44.18359375 81.23828125 C-54.61482265 74.10569339 -62.48624373 63.95834215 -65.609375 51.5859375 C-67.56858289 38.61598126 -65.40629915 26.78838475 -57.6953125 16.09375 C-43.93040261 -0.90623087 -20.91133935 -9.42080817 0 0 Z " fill="#FC4B62" transform="translate(117,26)"/>
<path d="M0 0 C13.7070775 11.52529124 23.09765531 27.7309021 25.640625 45.4921875 C25.9143577 48.95672998 25.97562538 52.39280731 25.953125 55.8671875 C25.94748535 56.78765869 25.9418457 57.70812988 25.93603516 58.65649414 C25.81170911 65.63783273 25.06223724 71.90103237 22.640625 78.4921875 C22.00253906 80.23242188 22.00253906 80.23242188 21.3515625 82.0078125 C18.38224691 89.47079821 14.94007876 95.48381558 9.640625 101.4921875 C9.0734375 102.18957031 8.50625 102.88695312 7.921875 103.60546875 C-2.53045842 116.21953477 -19.23845391 124.95115157 -35.55175781 126.73144531 C-54.67047659 128.17482391 -71.43283203 122.70016153 -86.484375 110.8671875 C-96.34609678 102.32121357 -102.46237547 92.49062365 -107.359375 80.4921875 C-107.68808594 79.71617188 -108.01679687 78.94015625 -108.35546875 78.140625 C-114.82346806 62.10988986 -112.26909746 42.37218953 -105.8515625 26.84375 C-97.17129689 8.2316456 -83.32253694 -3.85649502 -64.640625 -11.640625 C-43.24978364 -19.18602452 -17.69982129 -13.81939452 0 0 Z M-92.3515625 9.85546875 C-103.11374272 23.88691504 -108.57428729 39.72127956 -106.359375 57.4921875 C-102.54700056 75.92508209 -93.23315824 90.22306357 -77.91796875 101.25 C-63.72207958 110.3189629 -46.56128186 112.88959172 -30.16235352 109.41650391 C-13.80636323 105.41627765 0.0610548 97.18768353 9.578125 83.1171875 C18.21419671 68.33054765 21.81325338 52.19934739 18.390625 35.34765625 C14.17590141 19.30097426 4.33699436 6.28705421 -9.484375 -2.7578125 C-35.94322828 -18.03428668 -71.96586163 -14.32756856 -92.3515625 9.85546875 Z " fill="#FDF6F7" transform="translate(143.359375,28.5078125)"/>
<path d="M0 0 C0.89976563 0.4021875 1.79953125 0.804375 2.7265625 1.21875 C14.81745751 7.21423513 23.37517041 17.02131536 27.875 29.75 C30.92406922 41.3985399 29.44256432 53.01336752 23.609375 63.5 C22.16333681 65.75277528 20.63054771 67.87782986 19 70 C18.54882812 70.62648438 18.09765625 71.25296875 17.6328125 71.8984375 C12.00184717 79.18369773 3.66590051 83.3294878 -5 86 C-6.2375 86.391875 -7.475 86.78375 -8.75 87.1875 C-21.04750696 89.95205583 -33.28339491 87.27017042 -44.18359375 81.23828125 C-54.61482265 74.10569339 -62.48624373 63.95834215 -65.609375 51.5859375 C-67.56858289 38.61598126 -65.40629915 26.78838475 -57.6953125 16.09375 C-43.93040261 -0.90623087 -20.91133935 -9.42080817 0 0 Z M-45.9140625 12.33203125 C-53.89721043 23.90577311 -56.89113676 34.57304652 -54.5390625 48.78515625 C-51.48567869 60.11859849 -44.81055235 69.17089505 -34.8203125 75.34765625 C-26.55050377 79.70100839 -16.74035409 80.65283792 -7.73046875 78.05859375 C3.8362541 73.41735527 10.78579771 67.62671998 16.328125 56.28125 C20.55925913 45.43524421 20.9866284 32.2065811 16.32421875 21.42578125 C12.28807639 14.03213994 7.14208549 8.45027676 0 4 C-0.928125 3.37931641 -0.928125 3.37931641 -1.875 2.74609375 C-16.16865201 -5.26616822 -35.88436403 0.11217414 -45.9140625 12.33203125 Z " fill="#FDF4F5" transform="translate(117,26)"/>
<path d="M0 0 C5.29588133 3.38936405 9.54350797 8.83218109 11.125 15 C11.83041015 21.11355465 10.33550791 25.85195525 7.125 31 C3.40470102 35.05693856 -0.85982618 38.64929247 -6.4609375 39.30078125 C-13.13552307 39.32882573 -17.69492578 39.05206275 -22.71875 34.23046875 C-27.3246952 29.29417912 -29.56797197 25.37730833 -30.1875 18.5625 C-29.58634031 11.70927955 -26.62994807 6.86552825 -21.875 2 C-15.87931935 -2.38708341 -6.92871465 -2.3764411 0 0 Z " fill="#FDF9FA" transform="translate(107.875,31)"/>
<path d="M0 0 C11.7694199 9.89605495 22.48529744 24.81048851 24.515625 40.3671875 C24.556875 41.3984375 24.598125 42.4296875 24.640625 43.4921875 C23.650625 43.4921875 22.660625 43.4921875 21.640625 43.4921875 C21.56714844 44.97332031 21.56714844 44.97332031 21.4921875 46.484375 C21.41742188 47.76570313 21.34265625 49.04703125 21.265625 50.3671875 C21.19601563 51.64335938 21.12640625 52.91953125 21.0546875 54.234375 C20.640625 57.4921875 20.640625 57.4921875 18.640625 59.4921875 C18.66382813 58.46480469 18.68703125 57.43742187 18.7109375 56.37890625 C19.02553317 36.84085939 14.58318478 21.04871535 1.015625 6.3671875 C-12.84246113 -6.79932427 -28.85644629 -11.31940097 -47.4140625 -10.87890625 C-62.95177376 -10.05689356 -78.22891493 -3.39092902 -89.359375 7.4921875 C-98.00151723 17.79965126 -103.79791803 29.05827325 -105.359375 42.4921875 C-105.689375 42.4921875 -106.019375 42.4921875 -106.359375 42.4921875 C-106.5759375 41.1309375 -106.5759375 41.1309375 -106.796875 39.7421875 C-107.25481587 36.67567257 -107.25481587 36.67567257 -107.97802734 34.50805664 C-108.64823688 30.96521404 -106.57670361 28.00672078 -104.984375 24.9296875 C-104.62077881 24.21876953 -104.25718262 23.50785156 -103.88256836 22.77539062 C-100.46853401 16.32463573 -96.38571953 10.79632655 -91.359375 5.4921875 C-90.68519531 4.77675781 -90.01101562 4.06132813 -89.31640625 3.32421875 C-65.21742598 -20.05133998 -26.04797398 -20.33733692 0 0 Z " fill="#FEE5EA" transform="translate(143.359375,28.5078125)"/>
<path d="M0 0 C-3 1 -3 1 -5.4375 0 C-8.23004526 -1.08977376 -9.28174888 -1.16496477 -12 0 C-12.33 0.66 -12.66 1.32 -13 2 C-14.7634375 1.38125 -14.7634375 1.38125 -16.5625 0.75 C-18.37276214 0.15975852 -20.18560649 -0.42258316 -22 -1 C-23.10214844 -1.35964844 -24.20429687 -1.71929687 -25.33984375 -2.08984375 C-47.52814885 -8.74396726 -65.90469001 -3.44778285 -86 7 C-86.33 6.34 -86.66 5.68 -87 5 C-86.01 5 -85.02 5 -84 5 C-84 4.34 -84 3.68 -84 3 C-85.6549514 1.19546354 -85.6549514 1.19546354 -88 0 C-90.6984589 0.22197813 -90.6984589 0.22197813 -93 1 C-67.19557938 -19.84203204 -26.93655368 -14.93655466 0 0 Z " fill="#F74F65" transform="translate(146,20)"/>
<path d="M0 0 C0.89976563 0.4021875 1.79953125 0.804375 2.7265625 1.21875 C11.42187824 5.53047681 18.22239657 11.5048239 23 20 C21.02 19.34 19.04 18.68 17 18 C17.2165625 18.63164063 17.433125 19.26328125 17.65625 19.9140625 C20.08346203 27.71260486 20.32033622 34.87295148 20 43 C19.67 43 19.34 43 19 43 C18.97421875 42.18917969 18.9484375 41.37835938 18.921875 40.54296875 C18.30772063 28.55300057 15.63391892 18.70176897 7 10 C-0.54909426 3.89391845 -7.97281549 0.40941085 -17.6875 0.4375 C-18.47334473 0.4377417 -19.25918945 0.4379834 -20.06884766 0.43823242 C-29.16486724 0.70324628 -35.91750585 4.51518476 -43 10 C-42.835 9.401875 -42.67 8.80375 -42.5 8.1875 C-41.8885876 5.88655664 -41.8885876 5.88655664 -42 3 C-32.60229232 -6.39770768 -11.29167215 -5.08703319 0 0 Z " fill="#FEE5EA" transform="translate(117,26)"/>
<path d="M0 0 C2.52734375 1.7265625 2.52734375 1.7265625 3.52734375 3.7265625 C1.87734375 4.0565625 0.22734375 4.3865625 -1.47265625 4.7265625 C-1.80265625 6.3765625 -2.13265625 8.0265625 -2.47265625 9.7265625 C-3.02953125 8.9840625 -3.58640625 8.2415625 -4.16015625 7.4765625 C-8.40482364 2.42884993 -11.71002063 0.10282606 -18.20703125 -0.546875 C-25.2967168 -0.78564679 -30.14909015 -0.18651176 -35.47265625 4.7265625 C-40.06211551 10.49280618 -40.72697732 14.47841187 -40.47265625 21.7265625 C-40.1874522 23.40213629 -39.87309929 25.07473495 -39.47265625 26.7265625 C-40.46265625 26.0665625 -41.45265625 25.4065625 -42.47265625 24.7265625 C-42.8359375 21.57421875 -42.8359375 21.57421875 -42.78515625 17.7890625 C-42.78128906 16.54253906 -42.77742188 15.29601562 -42.7734375 14.01171875 C-42.47265625 10.7265625 -42.47265625 10.7265625 -40.47265625 7.7265625 C-40.47265625 6.4065625 -40.47265625 5.0865625 -40.47265625 3.7265625 C-41.79265625 4.0565625 -43.11265625 4.3865625 -44.47265625 4.7265625 C-35.22319645 -10.68920383 -13.14128852 -7.31576887 0 0 Z " fill="#F1546A" transform="translate(119.47265625,31.2734375)"/>
<path d="M0 0 C0.77923828 0.00451172 1.55847656 0.00902344 2.36132812 0.01367188 C4.26175268 0.02533092 6.16213706 0.04326123 8.0625 0.0625 C7.7325 1.0525 7.4025 2.0425 7.0625 3.0625 C5.93972656 3.11148437 4.81695312 3.16046875 3.66015625 3.2109375 C-7.7819511 3.67828159 -7.7819511 3.67828159 -18.9375 6.0625 C-19.7934375 6.31773438 -20.649375 6.57296875 -21.53125 6.8359375 C-37.1531014 11.97008529 -48.81212672 21.94508241 -56.7109375 36.28125 C-60.03644422 43.09448327 -62.06203466 49.53047924 -62.9375 57.0625 C-63.2675 57.0625 -63.5975 57.0625 -63.9375 57.0625 C-64.1540625 55.70125 -64.1540625 55.70125 -64.375 54.3125 C-64.83294087 51.24598507 -64.83294087 51.24598507 -65.55615234 49.07836914 C-66.22636188 45.53552654 -64.15482861 42.57703328 -62.5625 39.5 C-62.19890381 38.78908203 -61.83530762 38.07816406 -61.46069336 37.34570312 C-58.04665901 30.89494823 -53.96384453 25.36663905 -48.9375 20.0625 C-48.26332031 19.34707031 -47.58914062 18.63164063 -46.89453125 17.89453125 C-34.22231961 5.60272371 -17.39046654 -0.19372413 0 0 Z " fill="#FED8E1" transform="translate(100.9375,13.9375)"/>
<path d="M0 0 C0.01458252 0.5983667 0.02916504 1.1967334 0.04418945 1.81323242 C0.43593766 17.46182756 0.43593766 17.46182756 3.57421875 32.734375 C3.71472656 33.48203125 3.85523438 34.2296875 4 35 C3.34 35.66 2.68 36.32 2 37 C1.67 35.68 1.34 34.36 1 33 C0.01 33 -0.98 33 -2 33 C-1.649375 34.2375 -1.29875 35.475 -0.9375 36.75 C-0.04406727 39.903292 0.00881294 41.86774164 -1 45 C-4.36281977 36.66605535 -5.18075854 29.06417314 -5.1875 20.125 C-5.19974609 19.27808594 -5.21199219 18.43117188 -5.22460938 17.55859375 C-5.2375045 11.9449179 -4.94853248 6.32219047 -3 1 C-1 0 -1 0 0 0 Z " fill="#FEEBF0" transform="translate(37,64)"/>
<path d="M0 0 C20.97878833 -0.76105553 36.60397753 1.7992446 55 12 C52 13 52 13 49.5625 12 C46.76995474 10.91022624 45.71825112 10.83503523 43 12 C42.67 12.66 42.34 13.32 42 14 C41.47792969 13.81824219 40.95585937 13.63648438 40.41796875 13.44921875 C34.34250187 11.37440957 28.20694217 9.63584831 22 8 C22 7.67 22 7.34 22 7 C24.97 7 27.94 7 31 7 C31 7.66 31 8.32 31 9 C32.65 9 34.3 9 36 9 C36 7.68 36 6.36 36 5 C34.92878906 4.86722656 33.85757813 4.73445312 32.75390625 4.59765625 C31.35674231 4.4194944 29.95960841 4.24109681 28.5625 4.0625 C27.50192383 3.93198242 27.50192383 3.93198242 26.41992188 3.79882812 C21.11328125 3.11328125 21.11328125 3.11328125 20 2 C18.51361008 1.84344973 17.02050873 1.74933057 15.52734375 1.68359375 C14.17866211 1.62075195 14.17866211 1.62075195 12.80273438 1.55664062 C11.85720703 1.51732422 10.91167969 1.47800781 9.9375 1.4375 C8.98810547 1.39431641 8.03871094 1.35113281 7.06054688 1.30664062 C4.70718647 1.20020724 2.35371646 1.09818992 0 1 C0 0.67 0 0.34 0 0 Z " fill="#F25B6F" transform="translate(91,8)"/>
<path d="M0 0 C7.85062631 0.32710943 12.18990343 4.0629676 17.5078125 9.62109375 C19.70785456 12.05217471 21.87116029 14.50649794 24 17 C21 17 21 17 18 16 C18.2165625 16.63164063 18.433125 17.26328125 18.65625 17.9140625 C21.08346203 25.71260486 21.32033622 32.87295148 21 41 C20.67 41 20.34 41 20 41 C19.97421875 40.18917969 19.9484375 39.37835938 19.921875 38.54296875 C19.30338031 26.4682655 16.56806454 16.8352599 8 8 C5.73574012 6.20652683 3.39117167 4.62599673 1 3 C0.67 2.01 0.34 1.02 0 0 Z " fill="#FEEAED" transform="translate(116,28)"/>
<path d="M0 0 C-0.99 0 -1.98 0 -3 0 C-3 0.66 -3 1.32 -3 2 C1.62 2 6.24 2 11 2 C11.33 2.66 11.66 3.32 12 4 C10.62328125 3.91298828 10.62328125 3.91298828 9.21875 3.82421875 C-0.22362912 3.44236782 -0.22362912 3.44236782 -8.44921875 7.50390625 C-13.14246877 12.03165123 -14.89475499 16.10576218 -15.125 22.4375 C-15.01943988 25.44596345 -14.70650682 28.08565937 -14 31 C-14.99 30.34 -15.98 29.68 -17 29 C-17.36328125 25.84765625 -17.36328125 25.84765625 -17.3125 22.0625 C-17.30863281 20.81597656 -17.30476563 19.56945312 -17.30078125 18.28515625 C-17 15 -17 15 -15 12 C-15 10.68 -15 9.36 -15 8 C-16.32 8.33 -17.64 8.66 -19 9 C-15.51652541 3.19420902 -6.89592054 -2.63476209 0 0 Z " fill="#EF5E73" transform="translate(94,27)"/>
<path d="M0 0 C0.99 0.33 1.98 0.66 3 1 C2.41992188 1.71542969 1.83984375 2.43085937 1.2421875 3.16796875 C-6.83702233 13.47362749 -12.46260294 23.7730839 -14 37 C-14.33 37 -14.66 37 -15 37 C-15.2165625 35.63875 -15.2165625 35.63875 -15.4375 34.25 C-15.89544087 31.18348507 -15.89544087 31.18348507 -16.61865234 29.01586914 C-17.28901036 25.47224167 -15.21615734 22.5156662 -13.625 19.4375 C-13.26792969 18.73238281 -12.91085938 18.02726562 -12.54296875 17.30078125 C-9.13913139 10.82289008 -4.94568271 5.4036163 0 0 Z " fill="#FEDCE1" transform="translate(52,34)"/>
<path d="M0 0 C1.34191406 -0.0309375 1.34191406 -0.0309375 2.7109375 -0.0625 C8.88231911 -0.09838013 13.90787033 0.92954884 19.625 3.25 C18.625 6.25 18.625 6.25 16.625 7.25 C17.12 8.735 17.12 8.735 17.625 10.25 C11.685 8.765 11.685 8.765 5.625 7.25 C5.625 6.92 5.625 6.59 5.625 6.25 C7.605 5.92 9.585 5.59 11.625 5.25 C11.625 4.59 11.625 3.93 11.625 3.25 C2.33374233 0.15291411 -9.68685921 2.49960459 -19.375 3.25 C-14.9183044 -1.2066956 -5.9655826 0.03408904 0 0 Z " fill="#EC5D6F" transform="translate(101.375,16.75)"/>
<path d="M0 0 C-0.62648438 0.09796875 -1.25296875 0.1959375 -1.8984375 0.296875 C-2.71570313 0.44640625 -3.53296875 0.5959375 -4.375 0.75 C-5.18710938 0.88921875 -5.99921875 1.0284375 -6.8359375 1.171875 C-9.17709092 1.81749261 -9.17709092 1.81749261 -10.2890625 4.078125 C-10.52367188 4.71234375 -10.75828125 5.3465625 -11 6 C-11.66 6 -12.32 6 -13 6 C-13 7.32 -13 8.64 -13 10 C-11.35 9.67 -9.7 9.34 -8 9 C-11.12432397 11.52349243 -14.38060496 13.27256146 -18 15 C-18.33 14.34 -18.66 13.68 -19 13 C-18.01 13 -17.02 13 -16 13 C-16 12.34 -16 11.68 -16 11 C-17.6549514 9.19546354 -17.6549514 9.19546354 -20 8 C-22.6984589 8.22197813 -22.6984589 8.22197813 -25 9 C-21.73612914 6.32810571 -18.32990791 4.6230543 -14.5 2.875 C-13.3759375 2.35679688 -12.251875 1.83859375 -11.09375 1.3046875 C-6.85885236 -0.48124156 -4.44541001 -1.42888179 0 0 Z " fill="#F15A6D" transform="translate(78,12)"/>
<path d="M0 0 C2.97 0 5.94 0 9 0 C9 0.66 9 1.32 9 2 C22.52192687 3.09110649 34.55883942 2.95426419 48 1 C50.66531229 0.65400368 53.33224392 0.32666401 56 0 C41.31761169 8.07882611 20.18894164 6.80609297 4.57080078 2.42358398 C3.04124868 1.96860602 1.51946066 1.48762061 0 1 C0 0.67 0 0.34 0 0 Z " fill="#EB6979" transform="translate(72,187)"/>
<path d="M0 0 C20.59033079 -0.60559796 20.59033079 -0.60559796 28 3 C28.66 3.66 29.32 4.32 30 5 C28.4375 6.1875 28.4375 6.1875 26 7 C24.44010096 6.28787218 22.88340643 5.56749968 21.34765625 4.8046875 C16.16512032 3.02831079 10.43516827 3.21861287 5 3 C5 2.67 5 2.34 5 2 C3.35 1.67 1.7 1.34 0 1 C0 0.67 0 0.34 0 0 Z " fill="#FED9E1" transform="translate(89,23)"/>
<path d="M0 0 C0.33 0.99 0.66 1.98 1 3 C0.5359375 3.40863281 0.071875 3.81726562 -0.40625 4.23828125 C-2.1911175 6.21125978 -2.74644233 7.6532138 -3.5 10.1875 C-4.41114193 13.16549546 -5.40805818 16.00987 -6.625 18.875 C-8.51321552 23.75865691 -8.72350868 28.81340426 -9 34 C-9.33 34 -9.66 34 -10 34 C-10.51607042 20.73507888 -9.11420032 11.66507167 -1 1 C-0.67 0.67 -0.34 0.34 0 0 Z " fill="#EF6276" transform="translate(72,38)"/>
<path d="M0 0 C-0.33 0.66 -0.66 1.32 -1 2 C-1.66 1.67 -2.32 1.34 -3 1 C-3.12375 1.639375 -3.2475 2.27875 -3.375 2.9375 C-3.58125 3.618125 -3.7875 4.29875 -4 5 C-4.99 5.495 -4.99 5.495 -6 6 C-5.67 6.99 -5.34 7.98 -5 9 C-5.66 9 -6.32 9 -7 9 C-7 10.65 -7 12.3 -7 14 C-9.64 13.67 -12.28 13.34 -15 13 C-13.43638038 9.16202456 -10.97489917 6.8332373 -8 4 C-7.319375 3.236875 -6.63875 2.47375 -5.9375 1.6875 C-4 0 -4 0 0 0 Z " fill="#FB4B62" transform="translate(66,30)"/>
<path d="M0 0 C0.99 0.33 1.98 0.66 3 1 C3.8125 2.875 3.8125 2.875 4 5 C3.01 6.485 3.01 6.485 2 8 C0.02 7.01 -1.96 6.02 -4 5 C-4 4.34 -4 3.68 -4 3 C-5.98 3 -7.96 3 -10 3 C-9.67 1.68 -9.34 0.36 -9 -1 C-5.35059109 -2.35163293 -3.46106336 -1.59741386 0 0 Z " fill="#FB4B62" transform="translate(143,20)"/>
<path d="M0 0 C2.96404505 2.80804268 5.44499019 5.18315774 7 9 C6.01 8.67 5.02 8.34 4 8 C3.67 7.34 3.34 6.68 3 6 C1.35 6.33 -0.3 6.66 -2 7 C-2 11.95 -2 16.9 -2 22 C-4.00993705 18.98509443 -4.72623341 16.7850073 -5.625 13.3125 C-5.88539063 12.31863281 -6.14578125 11.32476562 -6.4140625 10.30078125 C-6.60742188 9.54152344 -6.80078125 8.78226563 -7 8 C-5.68 7.34 -4.36 6.68 -3 6 C-3 5.01 -3 4.02 -3 3 C-2.01 3.33 -1.02 3.66 0 4 C0 2.68 0 1.36 0 0 Z " fill="#F25C6D" transform="translate(148,39)"/>
<path d="M0 0 C2.88437779 1.29299694 4.87219421 2.65941363 7 5 C6.67 5.99 6.34 6.98 6 8 C5.67 7.34 5.34 6.68 5 6 C4.7525 6.639375 4.505 7.27875 4.25 7.9375 C3 10 3 10 0.875 10.75 C-0.053125 10.87375 -0.053125 10.87375 -1 11 C-1 9.68 -1 8.36 -1 7 C-1.66 7 -2.32 7 -3 7 C-2.25 2.25 -2.25 2.25 0 0 Z " fill="#FC4960" transform="translate(142,36)"/>
<path d="M0 0 C5.86947901 5.86947901 6.01813377 16.20189512 6.125 24.0625 C6.08724423 28.1338302 5.69712443 31.99153455 5 36 C4.67 36 4.34 36 4 36 C3.96261719 34.69546875 3.92523438 33.3909375 3.88671875 32.046875 C3.57431874 23.20146767 3.21278056 14.84398578 0.62109375 6.3125 C0 4 0 4 0 0 Z " fill="#EC6C7D" transform="translate(157,53)"/>
<path d="M0 0 C0.6875 1.625 0.6875 1.625 1 4 C-1.6331957 10.31966969 -4.328934 13.88279761 -10.29296875 17.046875 C-12.1666837 18.03033883 -12.1666837 18.03033883 -14.25 19.8125 C-14.8275 20.204375 -15.405 20.59625 -16 21 C-16.99 20.67 -17.98 20.34 -19 20 C-18.443125 19.68289062 -17.88625 19.36578125 -17.3125 19.0390625 C-9.70425817 14.38672544 -3.74862126 8.17538506 0 0 Z " fill="#EF6076" transform="translate(141,87)"/>
<path d="M0 0 C0.33 0.99 0.66 1.98 1 3 C-0.39025391 3.09087891 -0.39025391 3.09087891 -1.80859375 3.18359375 C-3.00613281 3.26738281 -4.20367187 3.35117187 -5.4375 3.4375 C-6.63246094 3.51871094 -7.82742187 3.59992187 -9.05859375 3.68359375 C-11.88570244 3.67656114 -11.88570244 3.67656114 -13 5 C-15.33297433 5.04092937 -17.66705225 5.04241723 -20 5 C-19.34 4.67 -18.68 4.34 -18 4 C-17.67 3.01 -17.34 2.02 -17 1 C-5.47835991 -0.14806378 -5.47835991 -0.14806378 0 0 Z " fill="#FC4A5F" transform="translate(103,18)"/>
<path d="M0 0 C-0.33 0.99 -0.66 1.98 -1 3 C-4.47874757 3.19590444 -7.95800904 3.38031592 -11.4375 3.5625 C-12.43072266 3.61857422 -13.42394531 3.67464844 -14.44726562 3.73242188 C-15.39150391 3.78076172 -16.33574219 3.82910156 -17.30859375 3.87890625 C-18.18314209 3.9260376 -19.05769043 3.97316895 -19.95874023 4.02172852 C-22 4 -22 4 -23 3 C-24.32594105 2.63837971 -25.65938457 2.30271961 -27 2 C-18.04395567 -0.46456257 -9.19822505 -0.1920743 0 0 Z " fill="#FEC5D0" transform="translate(109,14)"/>
<path d="M0 0 C13.45126755 -0.48797678 26.14188972 -0.38199281 39 4 C39.66 4.66 40.32 5.32 41 6 C40.01 6.33 39.02 6.66 38 7 C38 6.34 38 5.68 38 5 C32.93301125 4.35511052 27.86979214 3.76965413 22.78515625 3.28125 C21 3 21 3 20 2 C18.51361008 1.84344973 17.02050873 1.74933057 15.52734375 1.68359375 C14.17866211 1.62075195 14.17866211 1.62075195 12.80273438 1.55664062 C11.85720703 1.51732422 10.91167969 1.47800781 9.9375 1.4375 C8.98810547 1.39431641 8.03871094 1.35113281 7.06054688 1.30664062 C4.70718647 1.20020724 2.35371646 1.09818992 0 1 C0 0.67 0 0.34 0 0 Z " fill="#E96578" transform="translate(91,8)"/>
<path d="M0 0 C-1.60198888 1.46072532 -3.20667116 2.91849716 -4.8125 4.375 C-5.70582031 5.18710937 -6.59914063 5.99921875 -7.51953125 6.8359375 C-10 9 -10 9 -13 11 C-13 10.01 -13 9.02 -13 8 C-12.34 8 -11.68 8 -11 8 C-11 7.34 -11 6.68 -11 6 C-11.66 5.67 -12.32 5.34 -13 5 C-12.01 4.34 -11.02 3.68 -10 3 C-9.67 2.01 -9.34 1.02 -9 0 C-2.25 -1.125 -2.25 -1.125 0 0 Z " fill="#F15B6F" transform="translate(72,31)"/>
<path d="M0 0 C1 2 1 2 0.0703125 5.83984375 C-1.33907961 11.75100007 -1.21976143 17.51599203 -1.125 23.5625 C-1.11597656 24.66658203 -1.10695312 25.77066406 -1.09765625 26.90820312 C-1.07430128 29.6057017 -1.04155054 32.30273077 -1 35 C-1.66 35 -2.32 35 -3 35 C-3.07455949 30.97990543 -3.12879358 26.96008267 -3.16479492 22.93945312 C-3.17981428 21.57382184 -3.20023608 20.20823824 -3.22631836 18.84277344 C-3.26300137 16.87196095 -3.27818551 14.90078592 -3.29296875 12.9296875 C-3.3086792 11.74616699 -3.32438965 10.56264648 -3.34057617 9.34326172 C-2.96248673 5.63175144 -1.85288176 3.20995202 0 0 Z " fill="#E96575" transform="translate(34,63)"/>
<path d="M0 0 C0.66 0 1.32 0 2 0 C1.8125 1.8125 1.8125 1.8125 1 4 C-0.66279327 5.0064275 -2.32983484 6.00585407 -4 7 C-5.03013277 8.64821244 -6.03114628 10.31503702 -7 12 C-9.1875 13.8125 -9.1875 13.8125 -11 15 C-11.66 14.67 -12.32 14.34 -13 14 C-11.2088872 12.04115757 -9.41713468 10.08290714 -7.625 8.125 C-7.11710937 7.56941406 -6.60921875 7.01382813 -6.0859375 6.44140625 C-4.0883974 4.25988219 -2.09183907 2.09183907 0 0 Z " fill="#EE6375" transform="translate(40,29)"/>
<path d="M0 0 C1 3 1 3 -0.25 5.6875 C-1.11625 6.8321875 -1.11625 6.8321875 -2 8 C-2.99 8 -3.98 8 -5 8 C-5 8.66 -5 9.32 -5 10 C-6.65071396 11.02611949 -8.31970006 12.02308143 -10 13 C-10.515625 13.5775 -11.03125 14.155 -11.5625 14.75 C-12.2740625 15.36875 -12.2740625 15.36875 -13 16 C-15.08984375 15.578125 -15.08984375 15.578125 -17 15 C-16.25556641 14.45472656 -16.25556641 14.45472656 -15.49609375 13.8984375 C-6.90038152 7.79827171 -6.90038152 7.79827171 0 0 Z " fill="#F05B73" transform="translate(152,130)"/>
<path d="M0 0 C5.7997144 3.75275638 10.06959541 10.09987377 11.671875 16.81640625 C11.78015625 17.53699219 11.8884375 18.25757812 12 19 C11.01 18.67 10.02 18.34 9 18 C8.67 16.02 8.34 14.04 8 12 C7.34 12 6.68 12 6 12 C4.68 9.36 3.36 6.72 2 4 C1.34 4 0.68 4 0 4 C0 2.68 0 1.36 0 0 Z " fill="#EC677A" transform="translate(123,35)"/>
<path d="M0 0 C0.99 0.33 1.98 0.66 3 1 C-0.59054233 4.88975419 -4.73898882 7.89732195 -9 11 C-9.66 10.34 -10.32 9.68 -11 9 C-9.23977508 7.46690087 -7.46646537 5.94881299 -5.6875 4.4375 C-4.70136719 3.59058594 -3.71523438 2.74367188 -2.69921875 1.87109375 C-1.80847656 1.25363281 -0.91773438 0.63617187 0 0 Z " fill="#FED0D7" transform="translate(64,24)"/>
<path d="M0 0 C4.875 1.75 4.875 1.75 6 4 C4.35 4.33 2.7 4.66 1 5 C0.67 6.65 0.34 8.3 0 10 C-1.32 8.35 -2.64 6.7 -4 5 C-2.68 3.35 -1.36 1.7 0 0 Z " fill="#F25B71" transform="translate(117,31)"/>
<path d="M0 0 C2.31 0.33 4.62 0.66 7 1 C7 1.99 7 2.98 7 4 C5.1875 5.0625 5.1875 5.0625 3 6 C0.00667261 5.0022242 -0.94766315 4.2477975 -3 2 C-2.01 2 -1.02 2 0 2 C0 1.34 0 0.68 0 0 Z " fill="#FA4A60" transform="translate(124,24)"/>
<path d="M0 0 C0.66 0.33 1.32 0.66 2 1 C1.06677104 4.22388187 0.58700229 5.66015657 -2.375 7.375 C-5 8 -5 8 -9 7 C-6.03 4.69 -3.06 2.38 0 0 Z " fill="#F15C72" transform="translate(51,21)"/>
<path d="M0 0 C0.33 0.99 0.66 1.98 1 3 C-0.29296875 5.41015625 -0.29296875 5.41015625 -2.1875 8.0625 C-2.79980469 8.94035156 -3.41210938 9.81820312 -4.04296875 10.72265625 C-5.95456729 12.9471312 -7.30284026 13.94146946 -10 15 C-7.19921875 10.79882812 -7.19921875 10.79882812 -4.3984375 6.59765625 C-3.85445312 5.78167969 -3.31046875 4.96570313 -2.75 4.125 C-2.22921875 3.34382812 -1.7084375 2.56265625 -1.171875 1.7578125 C-0.59179688 0.88769531 -0.59179688 0.88769531 0 0 Z " fill="#FEE1E3" transform="translate(179,146)"/>
<path d="M0 0 C-0.99 0 -1.98 0 -3 0 C-3 0.66 -3 1.32 -3 2 C-5.64 2.66 -8.28 3.32 -11 4 C-11 4.66 -11 5.32 -11 6 C-12.65 6 -14.3 6 -16 6 C-13.75539393 3.50439964 -11.61479403 2.1294516 -8.5625 0.75 C-7.80066406 0.39421875 -7.03882812 0.0384375 -6.25390625 -0.328125 C-3.72027666 -1.08338373 -2.45814874 -0.87351072 0 0 Z " fill="#EC5E70" transform="translate(82,21)"/>
<path d="M0 0 C1.3274855 3.98245651 -0.00092171 6.44789543 -1.4375 10.1875 C-1.80198242 11.16879883 -1.80198242 11.16879883 -2.17382812 12.16992188 C-2.7743293 13.78303286 -3.38609203 15.3919435 -4 17 C-5.19013327 13.42960018 -4.69950069 12.06838156 -3.6875 8.5 C-3.42324219 7.5409375 -3.15898437 6.581875 -2.88671875 5.59375 C-2 3 -2 3 0 0 Z " fill="#E96377" transform="translate(188,121)"/>
<path d="M0 0 C0.33 1.32 0.66 2.64 1 4 C0.360625 4.103125 -0.27875 4.20625 -0.9375 4.3125 C-1.618125 4.539375 -2.29875 4.76625 -3 5 C-3.33 5.99 -3.66 6.98 -4 8 C-5.65 7.67 -7.3 7.34 -9 7 C-8.1646875 6.38125 -8.1646875 6.38125 -7.3125 5.75 C-4.83804044 3.87743601 -2.4164771 1.94660656 0 0 Z " fill="#F16275" transform="translate(113,63)"/>
<path d="M0 0 C3 1 3 1 4.6875 3.1875 C6.17161628 6.36774916 6.24194353 8.53214273 6 12 C6.66 12.33 7.32 12.66 8 13 C7.01 13 6.02 13 5 13 C4.35309078 11.3962669 3.70751236 9.79199694 3.0625 8.1875 C2.70285156 7.29417969 2.34320313 6.40085937 1.97265625 5.48046875 C1.26386514 3.6729091 0.6139753 1.84192591 0 0 Z " fill="#EC6377" transform="translate(159,47)"/>
<path d="M0 0 C2.31 0.33 4.62 0.66 7 1 C6.67 1.99 6.34 2.98 6 4 C3.9375 4.6875 3.9375 4.6875 2 5 C1.34 3.35 0.68 1.7 0 0 Z " fill="#F94A63" transform="translate(110,30)"/>
<path d="M0 0 C0.66 0.33 1.32 0.66 2 1 C0.34832443 4.5786304 -1.78286492 7.74820188 -4 11 C-5 8 -5 8 -4.00390625 5.95703125 C-3.52824219 5.24933594 -3.05257813 4.54164062 -2.5625 3.8125 C-2.08941406 3.09707031 -1.61632812 2.38164063 -1.12890625 1.64453125 C-0.75636719 1.10183594 -0.38382813 0.55914062 0 0 Z " fill="#FEE2E4" transform="translate(28,38)"/>
<path d="M0 0 C0.66 0.33 1.32 0.66 2 1 C1.04956626 2.33897583 0.08940853 3.67105427 -0.875 5 C-1.40867187 5.7425 -1.94234375 6.485 -2.4921875 7.25 C-3.23855469 8.11625 -3.23855469 8.11625 -4 9 C-4.66 9 -5.32 9 -6 9 C-4.68775452 5.06326356 -3.08089673 2.77280706 0 0 Z " fill="#FED9DE" transform="translate(86,33)"/>
<path d="M0 0 C0.66 0.33 1.32 0.66 2 1 C-0.31 3.64 -2.62 6.28 -5 9 C-5.33 8.34 -5.66 7.68 -6 7 C-6.66 6.67 -7.32 6.34 -8 6 C-5.36 4.02 -2.72 2.04 0 0 Z " fill="#FEE4E8" transform="translate(140,124)"/>
<path d="M0 0 C1.90389849 2.85584773 2.69462177 4.9311762 3.625 8.1875 C4.01558594 9.53908203 4.01558594 9.53908203 4.4140625 10.91796875 C4.60742188 11.60503906 4.80078125 12.29210937 5 13 C4.01 12.67 3.02 12.34 2 12 C0.65743047 7.68964518 0 4.52218352 0 0 Z " fill="#EE7082" transform="translate(34,103)"/>
<path d="M0 0 C1.65 0 3.3 0 5 0 C5 3 5 3 3.5 4.6875 C3.005 5.120625 2.51 5.55375 2 6 C2 5.34 2 4.68 2 4 C1.34 4 0.68 4 0 4 C0 2.68 0 1.36 0 0 Z " fill="#F5536C" transform="translate(122,89)"/>
<path d="M0 0 C0.33 0 0.66 0 1 0 C1.66 3.3 2.32 6.6 3 10 C2.01 10 1.02 10 0 10 C0 6.7 0 3.4 0 0 Z M-2 10 C-1.01 10.495 -1.01 10.495 0 11 C-0.99 11.495 -0.99 11.495 -2 12 C-2 11.34 -2 10.68 -2 10 Z " fill="#EF586F" transform="translate(51,75)"/>
<path d="M0 0 C2.31 1.65 4.62 3.3 7 5 C6.01 5.66 5.02 6.32 4 7 C2 5.75 2 5.75 0 4 C0 2.68 0 1.36 0 0 Z " fill="#F05E75" transform="translate(83,63)"/>
<path d="M0 0 C2.5 2.3125 2.5 2.3125 5 5 C5 5.99 5 6.98 5 8 C3.68 7.67 2.36 7.34 1 7 C0.67 4.69 0.34 2.38 0 0 Z " fill="#EE5A72" transform="translate(169,40)"/>
<path d="M0 0 C-1 3 -1 3 -3 4 C-4.99960012 4.039992 -7.00047242 4.04346799 -9 4 C-6.43425105 1.43425105 -3.68548192 0 0 0 Z " fill="#ED657A" transform="translate(135,146)"/>
<path d="M0 0 C0.33 0 0.66 0 1 0 C1.25 3.25 1.25 3.25 1 7 C-0.32 8.32 -1.64 9.64 -3 11 C-2.01 7.37 -1.02 3.74 0 0 Z " fill="#FEDDE3" transform="translate(188,124)"/>
<path d="M0 0 C0.33 0.66 0.66 1.32 1 2 C-0.25 5.0625 -0.25 5.0625 -2 8 C-2.99 8.33 -3.98 8.66 -5 9 C-3.7508258 5.54074837 -2.32472205 2.85306797 0 0 Z " fill="#EE6176" transform="translate(25,46)"/>
<path d="M0 0 C1.32 0 2.64 0 4 0 C4.33 1.98 4.66 3.96 5 6 C3.0625 5.25 3.0625 5.25 1 4 C0.25 1.875 0.25 1.875 0 0 Z " fill="#FEF0F1" transform="translate(154,45)"/>
<path d="M0 0 C2.31 1.98 4.62 3.96 7 6 C5.68 6.33 4.36 6.66 3 7 C0 2.25 0 2.25 0 0 Z " fill="#EE596C" transform="translate(141,32)"/>
<path d="M0 0 C0.66 0.33 1.32 0.66 2 1 C0.02 2.98 -1.96 4.96 -4 7 C-4.99 6.67 -5.98 6.34 -7 6 C-4.69 4.02 -2.38 2.04 0 0 Z " fill="#FEDEE6" transform="translate(73,29)"/>
<path d="M0 0 C3.37503669 1.1858237 5.64722731 2.27573689 8 5 C6.02 4.34 4.04 3.68 2 3 C1.67 3.66 1.34 4.32 1 5 C0.67 3.35 0.34 1.7 0 0 Z " fill="#EE5D6F" transform="translate(146,21)"/>
<path d="M0 0 C0.75 1.75 0.75 1.75 1 4 C-0.9375 6.25 -0.9375 6.25 -3 8 C-3.33 7.01 -3.66 6.02 -4 5 C-2.0625 2.3125 -2.0625 2.3125 0 0 Z " fill="#EF5B6F" transform="translate(157,124)"/>
<path d="M0 0 C0.33 0.66 0.66 1.32 1 2 C1.99 2.33 2.98 2.66 4 3 C2.35 3.33 0.7 3.66 -1 4 C-1 4.99 -1 5.98 -1 7 C-1.66 7 -2.32 7 -3 7 C-1.125 1.125 -1.125 1.125 0 0 Z " fill="#FDE3E7" transform="translate(58,44)"/>
</svg>
