<?xml version="1.0" encoding="UTF-8"?>
<svg version="1.1" xmlns="http://www.w3.org/2000/svg" width="200" height="200">
<path d="M0 0 C66 0 132 0 200 0 C200 66 200 132 200 200 C134 200 68 200 0 200 C0 134 0 68 0 0 Z " fill="#FEFDFE" transform="translate(0,0)"/>
<path d="M0 0 C7.26 0 14.52 0 22 0 C22.04898438 3.38636719 22.09796875 6.77273437 22.1484375 10.26171875 C22.20261708 13.58150231 22.25985754 16.90122019 22.31738281 20.22094727 C22.35540658 22.50865684 22.39030315 24.7964208 22.421875 27.08422852 C21.80266562 44.82085774 21.80266562 44.82085774 25 62 C29.63932349 66.24183846 33.12595396 68.28501551 39.4375 68.25 C40.36433594 68.25515625 41.29117188 68.2603125 42.24609375 68.265625 C46.41666962 67.86335669 49.27356176 66.50681738 52.6875 64.125 C58.07393677 56.8460314 57.31381554 45.87359837 57.4140625 37.109375 C57.43342865 36.03874817 57.4527948 34.96812134 57.4727478 33.86505127 C57.53184417 30.49344491 57.57864555 27.12180309 57.625 23.75 C57.66324433 21.4439967 57.70229965 19.1380067 57.7421875 16.83203125 C57.83899156 11.22142904 57.91911386 5.6109438 58 0 C65.26 0 72.52 0 80 0 C80.13671625 7.30310177 80.24628749 14.60547958 80.31087303 21.90960026 C80.34190469 25.3029369 80.38384076 28.695337 80.45263672 32.08813477 C81.07437582 65.18050312 81.07437582 65.18050312 70 78 C57.56969127 87.97181883 44.43515487 89.16797976 29 88 C18.07334617 85.85150065 10.82397525 79.76226419 4.54296875 70.85546875 C-0.01682756 62.41695963 -0.41106461 54.70364461 -0.29296875 45.21484375 C-0.28872391 43.91801163 -0.28447906 42.6211795 -0.28010559 41.28504944 C-0.26874898 37.86713744 -0.23936355 34.44961883 -0.20599365 31.03186035 C-0.17509233 27.53236204 -0.16155777 24.03279906 -0.14648438 20.53320312 C-0.11448284 13.68862596 -0.06179233 6.84437247 0 0 Z " fill="#0D0D0D" transform="translate(60,88)"/>
<path d="M0 0 C5.68525852 3.03830462 11.2103587 6.29686934 16.70166016 9.67211914 C22.75407259 13.41375938 22.75407259 13.41375938 29.23046875 16.30859375 C34.78472431 18.51435074 34.78472431 18.51435074 37.12109375 21.66796875 C38.52377872 28.90501002 37.84807784 36.38228335 37.12109375 43.66796875 C32.56084097 42.88970754 29.25063056 41.16818142 25.37109375 38.73046875 C24.04576405 37.92156177 22.72023502 37.11298129 21.39453125 36.3046875 C19.20739477 34.95871821 17.02390043 33.60736365 14.84472656 32.24853516 C12.56948209 30.83384298 10.28360467 29.43771361 7.99609375 28.04296875 C7.28614258 27.5931665 6.57619141 27.14336426 5.84472656 26.67993164 C1.91595941 24.25600474 1.91595941 24.25600474 -2.5703125 23.73828125 C-5.06197219 24.74169074 -7.3530812 25.84230416 -9.69140625 27.16796875 C-11.12033203 27.97041016 -11.12033203 27.97041016 -12.578125 28.7890625 C-13.66738281 29.40910156 -14.75664063 30.02914062 -15.87890625 30.66796875 C-17.19743805 31.40970562 -18.51647417 32.15054648 -19.8359375 32.890625 C-22.52156651 34.39746536 -25.20509084 35.90792698 -27.88671875 37.421875 C-32.20621396 39.85747481 -36.54171839 42.26405265 -40.87890625 44.66796875 C-41.14150998 40.9609917 -41.30047463 37.25640517 -41.44140625 33.54296875 C-41.51681641 32.49625 -41.59222656 31.44953125 -41.66992188 30.37109375 C-41.88731644 22.73812909 -41.88731644 22.73812909 -39.0090332 19.68359375 C-36.69620117 18.12717016 -34.39445266 16.86441662 -31.87890625 15.66796875 C-31.00363281 15.1575 -30.12835938 14.64703125 -29.2265625 14.12109375 C-28.47246094 13.7240625 -27.71835938 13.32703125 -26.94140625 12.91796875 C-23.36331946 11.03263123 -19.85661029 9.07194876 -16.38671875 6.99609375 C-15.59257568 6.53041992 -14.79843262 6.06474609 -13.98022461 5.58496094 C-12.39352128 4.65351296 -10.81577626 3.70660207 -9.24829102 2.74316406 C-3.76566169 -0.43430291 -3.76566169 -0.43430291 0 0 Z " fill="#A336EE" transform="translate(101.87890625,24.33203125)"/>
<path d="M0 0 C7.76943682 3.69573211 15.11206409 7.78637128 22.3828125 12.36328125 C24.85581988 13.967525 24.85581988 13.967525 27 15 C27 22.26 27 29.52 27 37 C26.01 37 25.02 37 24 37 C24 30.07 24 23.14 24 16 C16.0639976 11.08245 16.0639976 11.08245 11 10 C9.66666667 8.66666667 8.33333333 7.33333333 7 6 C4.36777038 4.74563813 4.36777038 4.74563813 2 4 C2 3.34 2 2.68 2 2 C1.34 2 0.68 2 0 2 C0 1.34 0 0.68 0 0 Z " fill="#9B3FD9" transform="translate(112,31)"/>
<path d="M0 0 C2.73732488 1.56638666 5.38327064 3.24036313 8 5 C7.01 5.495 7.01 5.495 6 6 C4.29572335 4.97100278 2.5930782 3.93549612 0.94921875 2.8125 C-1.7724527 1.67801571 -3.20341462 2.13339345 -6 3 C-7.84312653 3.92022183 -9.65557751 4.9037322 -11.4375 5.9375 C-15.22660564 8.07271223 -18.7751975 9.85816149 -23 11 C-20.63202009 8.38275905 -18.10399646 6.67138271 -15 5 C-14.34 5 -13.68 5 -13 5 C-13 4.01 -13 3.02 -13 2 C-4.42046127 -1.76818451 -4.42046127 -1.76818451 0 0 Z " fill="#983CD8" transform="translate(103,46)"/>
<path d="M0 0 C2.82583708 1.43560774 4.60840933 2.97394587 6.67578125 5.359375 C5.78890625 5.05 4.90203125 4.740625 3.98828125 4.421875 C2.89515625 4.07125 1.80203125 3.720625 0.67578125 3.359375 C-0.10152344 3.10414062 -0.87882812 2.84890625 -1.6796875 2.5859375 C-5.36769454 2.26997826 -6.93574291 3.60062921 -9.94921875 5.671875 C-10.89023438 6.30738281 -11.83125 6.94289063 -12.80078125 7.59765625 C-13.63351563 8.17902344 -14.46625 8.76039062 -15.32421875 9.359375 C-18.5521343 11.5113187 -19.60822684 11.56023943 -23.32421875 11.359375 C-19.41083507 8.03938347 -15.35892047 5.45456418 -10.88671875 2.984375 C-9.92282227 2.41396484 -9.92282227 2.41396484 -8.93945312 1.83203125 C-5.58730408 -0.01250152 -3.80716448 -0.73369562 0 0 Z " fill="#963ED3" transform="translate(102.32421875,24.640625)"/>
<path d="M0 0 C3.71286417 0.57717378 6.41741796 1.59398206 9.64453125 3.50390625 C10.48564453 3.99697266 11.32675781 4.49003906 12.19335938 4.99804688 C13.48983398 5.77245117 13.48983398 5.77245117 14.8125 6.5625 C15.69615234 7.08263672 16.57980469 7.60277344 17.49023438 8.13867188 C19.66401428 9.4194395 21.83367087 10.7066834 24 12 C23.34 12.66 22.68 13.32 22 14 C19.45662027 12.58634001 16.9152951 11.16918413 14.375 9.75 C13.66214844 9.35425781 12.94929688 8.95851563 12.21484375 8.55078125 C8.01437465 6.20006001 3.92165132 3.7958776 0 1 C0 0.67 0 0.34 0 0 Z " fill="#9C40DA" transform="translate(111,52)"/>
<path d="M0 0 C0.66 0 1.32 0 2 0 C2 7.92 2 15.84 2 24 C0.68 23.67 -0.64 23.34 -2 23 C-1.34 22.67 -0.68 22.34 0 22 C0 14.74 0 7.48 0 0 Z " fill="#EAC9FD" transform="translate(139,46)"/>
<path d="M0 0 C0 0.99 0 1.98 0 3 C-2.98055586 5.42603384 -5.00323092 6.91332443 -8.875 7.25 C-9.57625 7.1675 -10.2775 7.085 -11 7 C-7.53258866 4.04250209 -4.13126473 1.92151848 0 0 Z " fill="#A553DE" transform="translate(90,29)"/>
<path d="M0 0 C0.66 0.33 1.32 0.66 2 1 C1.67 1.66 1.34 2.32 1 3 C0.34 3 -0.32 3 -1 3 C-1.33 3.99 -1.66 4.98 -2 6 C-3.98 6 -5.96 6 -8 6 C-6.32169152 2.64338305 -3.29210653 1.67493139 0 0 Z " fill="#A854E2" transform="translate(77,36)"/>
<path d="M0 0 C0 0.99 0 1.98 0 3 C-0.928125 3.185625 -0.928125 3.185625 -1.875 3.375 C-4.19120832 3.87197356 -4.19120832 3.87197356 -6 6 C-6.99 5.34 -7.98 4.68 -9 4 C-2.25 0 -2.25 0 0 0 Z " fill="#F5D9FC" transform="translate(69,65)"/>
<path d="M0 0 C5.53846154 0.61538462 5.53846154 0.61538462 7.875 2.5625 C8.431875 3.2740625 8.431875 3.2740625 9 4 C8.01 4.495 8.01 4.495 7 5 C4.5249829 3.88568235 2.32116581 2.41849022 0 1 C0 0.67 0 0.34 0 0 Z " fill="#A14AE2" transform="translate(126,61)"/>
</svg>
